<svg width="200" height="200" viewBox="0 0 200 200" fill="none" xmlns="http://www.w3.org/2000/svg">
<rect width="200" height="200" fill="#F8F5F2"/>
<g clip-path="url(#clip0_122_19)">
<rect width="30" height="43" transform="translate(93.7017 72.1227) rotate(134.469)" fill="#F8F5F2"/>
<path d="M78.7418 60.2399L82.1218 65.3921C83.3931 67.33 84.0409 69.6105 83.978 71.9273V71.9273C83.8186 77.8069 79.1951 82.5912 73.3243 82.9514L73.1678 82.961C70.801 83.1062 68.447 82.5178 66.4269 81.276L61.2286 78.0805" stroke="black"/>
<line x1="79.0986" y1="60.5901" x2="61.5854" y2="78.4308" stroke="black"/>
<path d="M69.828 52.1904V52.1904C67.0557 51.3343 64.0666 51.5168 61.4191 52.7039L60.576 53.0819C57.3186 54.5425 54.7203 57.1617 53.2857 60.4307L52.8126 61.5088C51.6323 64.1985 51.4557 67.2222 52.3148 70.0311V70.0311" stroke="black"/>
<path d="M70.1782 51.8336L51.9645 70.3879" stroke="black"/>
<path d="M73.7268 53.215C74.515 53.9888 74.5267 55.255 73.753 56.0433L56.2398 73.8839C55.466 74.6722 54.1997 74.6839 53.4115 73.9101C52.6232 73.1363 52.6115 71.8701 53.3853 71.0818L55.0456 69.3904L59.8219 64.5248L63.3701 60.9103L70.8985 53.2412C71.6722 52.4529 72.9385 52.4412 73.7268 53.215Z" fill="#F8F5F2" stroke="black"/>
<path d="M77.2805 58.8055L77.2977 58.8516C77.7621 60.0942 76.5753 61.3188 75.3187 60.8933V60.8933C74.1113 60.4845 72.9442 61.6057 73.3043 62.8286L73.3718 63.0581C73.7294 64.2725 72.6803 65.4371 71.4352 65.2077L70.9387 65.1163C69.5092 64.8529 68.2819 66.1484 68.6223 67.5616L68.6538 67.6928C68.994 69.1055 67.8285 70.4274 66.3843 70.2667L65.4606 70.1639C64.0825 70.0106 63.0625 71.4171 63.6364 72.6794L63.8481 73.1451C64.343 74.2336 63.4353 75.4377 62.2526 75.2616L60.5806 75.0127C59.6614 74.8758 59.1041 75.9951 59.7673 76.6461V76.6461" stroke="#078080"/>
<circle cx="80.9808" cy="72.9476" r="0.5" transform="rotate(134.469 80.9808 72.9476)" fill="black"/>
<circle cx="77.4782" cy="76.5157" r="0.5" transform="rotate(134.469 77.4782 76.5157)" fill="black"/>
<circle cx="80.9284" cy="67.291" r="0.5" transform="rotate(134.469 80.9284 67.291)" fill="black"/>
<circle cx="77.4259" cy="70.8592" r="0.5" transform="rotate(134.469 77.4259 70.8592)" fill="black"/>
<circle cx="73.9232" cy="74.4273" r="0.5" transform="rotate(134.469 73.9232 74.4273)" fill="black"/>
<circle cx="69.0195" cy="79.4227" r="0.5" transform="rotate(134.469 69.0195 79.4227)" fill="black"/>
<circle cx="73.9755" cy="80.0839" r="0.5" transform="rotate(134.469 73.9755 80.0839)" fill="black"/>
<path d="M76.9904 56.4188C77.5527 56.9707 77.5611 57.874 77.0091 58.4362L58.6926 77.0952C58.1406 77.6575 57.2374 77.6659 56.6751 77.1139C56.1129 76.562 56.1045 75.6587 56.6565 75.0965L58.174 73.5506C58.5777 73.1393 58.9004 72.6557 59.1253 72.1251L60.6974 68.4152C61.5383 66.4308 63.3808 65.0516 65.5216 64.8037C66.4259 64.699 67.267 64.2876 67.9047 63.6379L74.973 56.4375C75.5249 55.8752 76.4282 55.8669 76.9904 56.4188Z" fill="#F8F5F2" stroke="black"/>
</g>
<g clip-path="url(#clip1_122_19)">
<rect width="30" height="43" transform="translate(75.7625 85.1091) rotate(90.5911)" fill="#F8F5F2"/>
<path d="M56.7428 86.913L62.7503 88.284C65.0099 88.7997 67.0575 89.9945 68.618 91.7081V91.7081C72.5785 96.0567 72.5619 102.71 68.5798 107.039L68.4736 107.154C66.8682 108.899 64.7636 110.107 62.4467 110.612L56.4849 111.912" stroke="black"/>
<line x1="57.2428" y1="86.9181" x2="56.9848" y2="111.917" stroke="black"/>
<path d="M44.7383 87.2892V87.2892C42.1466 88.5936 40.1185 90.797 39.0329 93.4878L38.6873 94.3446C37.3516 97.6552 37.2941 101.344 38.5259 104.695L38.9321 105.8C39.9456 108.557 41.9142 110.859 44.4804 112.288V112.288" stroke="black"/>
<path d="M44.7435 86.7892L44.4753 112.788" stroke="black"/>
<path d="M48.2588 85.3254C49.3633 85.3368 50.2494 86.2414 50.238 87.3459L49.9801 112.345C49.9687 113.449 49.0641 114.335 47.9596 114.324C46.8551 114.312 45.9689 113.408 45.9803 112.303L46.0048 109.933L46.0751 103.115L46.1274 98.0508L46.2382 87.3046C46.2496 86.2001 47.1543 85.314 48.2588 85.3254Z" fill="#F8F5F2" stroke="black"/>
<path d="M54.6953 86.8919L54.7397 86.9132C55.9358 87.487 55.929 89.1923 54.7284 89.7566V89.7566C53.5747 90.2988 53.5106 91.916 54.6178 92.5478L54.8255 92.6664C55.925 93.2939 55.976 94.8606 54.9196 95.5582L54.4983 95.8364C53.2853 96.6375 53.2987 98.4219 54.5235 99.2047L54.6372 99.2773C55.8616 100.06 55.9377 101.821 54.7853 102.706L54.0483 103.272C52.9487 104.117 53.1883 105.837 54.4769 106.349L54.9523 106.538C56.0635 106.98 56.2438 108.477 55.2692 109.17L53.8915 110.149C53.1341 110.688 53.5082 111.881 54.4374 111.891V111.891" stroke="#078080"/>
<circle cx="67.1649" cy="94.5209" r="0.5" transform="rotate(90.5911 67.1649 94.5209)" fill="black"/>
<circle cx="67.1133" cy="99.5207" r="0.5" transform="rotate(90.5911 67.1133 99.5207)" fill="black"/>
<circle cx="63.2064" cy="90.4799" r="0.5" transform="rotate(90.5911 63.2064 90.4799)" fill="black"/>
<circle cx="63.1548" cy="95.4796" r="0.5" transform="rotate(90.5911 63.1548 95.4796)" fill="black"/>
<circle cx="63.1031" cy="100.479" r="0.5" transform="rotate(90.5911 63.1031 100.479)" fill="black"/>
<circle cx="63.031" cy="107.479" r="0.5" transform="rotate(90.5911 63.031 107.479)" fill="black"/>
<circle cx="67.0618" cy="104.52" r="0.5" transform="rotate(90.5911 67.0618 104.52)" fill="black"/>
<path d="M52.8319 85.3726C53.6197 85.3807 54.2518 86.0259 54.2437 86.8138L53.9739 112.959C53.9658 113.747 53.3205 114.379 52.5327 114.371C51.7448 114.363 51.1128 113.718 51.1209 112.93L51.1432 110.764C51.1492 110.187 51.0466 109.615 50.8409 109.077L49.4027 105.313C48.6334 103.3 49.0054 101.028 50.3768 99.3659C50.9561 98.6636 51.2771 97.7841 51.2865 96.8738L51.3906 86.7844C51.3988 85.9965 52.044 85.3644 52.8319 85.3726Z" fill="#F8F5F2" stroke="black"/>
</g>
<g clip-path="url(#clip2_122_19)">
<rect width="30" height="43" transform="translate(72.8253 107.17) rotate(44.378)" fill="#F8F5F2"/>
<path d="M60.9663 122.148L66.1131 118.76C68.049 117.486 70.3285 116.834 72.6454 116.894V116.894C78.5253 117.044 83.3169 121.66 83.6865 127.53L83.6963 127.686C83.8453 130.053 83.2606 132.408 82.022 134.43L78.8348 139.633" stroke="black"/>
<line x1="61.316" y1="121.791" x2="79.1845" y2="139.276" stroke="black"/>
<path d="M52.9312 131.075V131.075C52.0794 133.849 52.2667 136.837 53.4581 139.483L53.8374 140.325C55.3032 143.581 57.9265 146.175 61.1978 147.604L62.2766 148.075C64.9682 149.251 67.9922 149.423 70.7997 148.56V148.56" stroke="black"/>
<path d="M52.5737 130.725L71.157 148.909" stroke="black"/>
<path d="M53.9495 127.175C54.722 126.385 55.9883 126.371 56.7777 127.144L74.6463 144.629C75.4357 145.401 75.4495 146.667 74.677 147.457C73.9044 148.246 72.6382 148.26 71.8487 147.488L70.1547 145.83L65.2814 141.061L61.6613 137.519L53.9802 130.003C53.1907 129.23 53.1769 127.964 53.9495 127.175Z" fill="#F8F5F2" stroke="black"/>
<path d="M59.5343 123.612L59.5804 123.595C60.8223 123.128 62.0487 124.313 61.6253 125.57V125.57C61.2184 126.778 62.3415 127.944 63.5638 127.582L63.7931 127.514C65.007 127.154 66.1732 128.202 65.9459 129.447L65.8552 129.944C65.5941 131.374 66.8916 132.599 68.3042 132.256L68.4353 132.224C69.8475 131.882 71.1712 133.045 71.0128 134.49L70.9116 135.414C70.7604 136.792 72.1685 137.81 73.4299 137.234L73.8953 137.021C74.983 136.525 76.1885 137.431 76.0144 138.614L75.7681 140.286C75.6327 141.205 76.7529 141.761 77.4028 141.097V141.097" stroke="#078080"/>
<circle cx="73.6705" cy="119.889" r="0.5" transform="rotate(44.378 73.6705 119.889)" fill="black"/>
<circle cx="77.2442" cy="123.386" r="0.5" transform="rotate(44.378 77.2442 123.386)" fill="black"/>
<circle cx="68.014" cy="119.95" r="0.5" transform="rotate(44.378 68.014 119.95)" fill="black"/>
<circle cx="71.5878" cy="123.447" r="0.5" transform="rotate(44.378 71.5878 123.447)" fill="black"/>
<circle cx="75.1615" cy="126.944" r="0.5" transform="rotate(44.378 75.1615 126.944)" fill="black"/>
<circle cx="80.1647" cy="131.84" r="0.5" transform="rotate(44.378 80.1647 131.84)" fill="black"/>
<circle cx="80.818" cy="126.883" r="0.5" transform="rotate(44.378 80.818 126.883)" fill="black"/>
<path d="M57.1481 123.906C57.6992 123.343 58.6024 123.333 59.1655 123.884L77.8537 142.171C78.4168 142.722 78.4266 143.625 77.8756 144.188C77.3245 144.751 76.4213 144.761 75.8582 144.21L74.3098 142.695C73.8979 142.292 73.4139 141.97 72.8829 141.746L69.1704 140.18C67.1848 139.342 65.8025 137.502 65.5513 135.361C65.4452 134.457 65.0324 133.617 64.3817 132.98L57.17 125.923C56.6069 125.372 56.5971 124.469 57.1481 123.906Z" fill="#F8F5F2" stroke="black"/>
</g>
<g clip-path="url(#clip3_122_19)">
<rect width="30" height="43" transform="translate(85.2925 124) rotate(1.72236)" fill="#F8F5F2"/>
<path d="M86.7206 143.052L88.21 137.072C88.7701 134.823 90.0052 132.8 91.7492 131.273V131.273C96.1752 127.399 102.827 127.547 107.076 131.614L107.189 131.723C108.903 133.362 110.068 135.49 110.528 137.817L111.709 143.803" stroke="black"/>
<line x1="86.7356" y1="142.552" x2="111.724" y2="143.303" stroke="black"/>
<path d="M86.8596 155.061V155.061C88.1126 157.678 90.2756 159.749 92.9444 160.888L93.7942 161.25C97.0778 162.651 100.765 162.781 104.139 161.616L105.252 161.232C108.028 160.273 110.369 158.35 111.848 155.813V155.813" stroke="black"/>
<path d="M86.3599 155.046L112.348 155.828" stroke="black"/>
<path d="M84.9656 151.503C84.9988 150.398 85.9208 149.53 87.0249 149.564L112.014 150.315C113.118 150.348 113.986 151.27 113.953 152.374C113.919 153.478 112.997 154.346 111.893 154.313L109.524 154.242L102.709 154.037L97.6465 153.885L86.9046 153.562C85.8006 153.529 84.9324 152.607 84.9656 151.503Z" fill="#F8F5F2" stroke="black"/>
<path d="M86.659 145.098L86.6812 145.054C87.2784 143.87 88.9833 143.91 89.5238 145.122V145.122C90.0431 146.286 91.6587 146.382 92.3123 145.287L92.435 145.082C93.0841 143.995 94.6514 143.975 95.3281 145.045L95.5979 145.472C96.3749 146.7 98.1592 146.722 98.966 145.513L99.0409 145.401C99.8474 144.192 101.609 144.151 102.472 145.321L103.023 146.069C103.846 147.185 105.571 146.979 106.108 145.701L106.307 145.229C106.77 144.127 108.271 143.976 108.944 144.964L109.896 146.361C110.42 147.129 111.62 146.779 111.648 145.85V145.85" stroke="#078080"/>
<circle cx="94.5327" cy="132.782" r="0.5" transform="rotate(1.72236 94.5327 132.782)" fill="black"/>
<circle cx="99.5304" cy="132.932" r="0.5" transform="rotate(1.72236 99.5304 132.932)" fill="black"/>
<circle cx="90.4143" cy="136.66" r="0.5" transform="rotate(1.72236 90.4143 136.66)" fill="black"/>
<circle cx="95.412" cy="136.81" r="0.5" transform="rotate(1.72236 95.412 136.81)" fill="black"/>
<circle cx="100.41" cy="136.96" r="0.5" transform="rotate(1.72236 100.41 136.96)" fill="black"/>
<circle cx="107.407" cy="137.171" r="0.5" transform="rotate(1.72236 107.407 137.171)" fill="black"/>
<circle cx="104.528" cy="133.082" r="0.5" transform="rotate(1.72236 104.528 133.082)" fill="black"/>
<path d="M85.1031 146.931C85.1268 146.144 85.7844 145.524 86.572 145.548L112.707 146.334C113.494 146.358 114.114 147.015 114.09 147.803C114.066 148.59 113.409 149.21 112.621 149.186L110.456 149.121C109.88 149.104 109.306 149.195 108.763 149.39L104.972 150.753C102.944 151.483 100.68 151.066 99.0453 149.662C98.3546 149.069 97.4815 148.731 96.5716 148.703L86.4862 148.4C85.6987 148.376 85.0794 147.719 85.1031 146.931Z" fill="#F8F5F2" stroke="black"/>
</g>
<g clip-path="url(#clip4_122_19)">
<rect width="30" height="43" transform="translate(85.3353 77.6565) rotate(-0.814547)" fill="#F8F5F2"/>
<path d="M87.6052 96.6261L88.8285 90.5868C89.2886 88.3152 90.4328 86.239 92.1076 84.6368V84.6368C96.3577 80.5709 103.009 80.4243 107.435 84.299L107.553 84.4022C109.337 85.9643 110.595 88.0388 111.157 90.3425L112.603 96.2707" stroke="black"/>
<line x1="87.5981" y1="96.1261" x2="112.596" y2="95.7708" stroke="black"/>
<path d="M88.2758 108.618V108.618C89.6434 111.177 91.8959 113.15 94.6124 114.169L95.4775 114.494C98.8199 115.748 102.509 115.715 105.829 114.401L106.923 113.968C109.654 112.887 111.907 110.863 113.273 108.262V108.262" stroke="black"/>
<path d="M87.7758 108.625L113.773 108.255" stroke="black"/>
<path d="M86.2262 105.147C86.2105 104.042 87.0931 103.134 88.1975 103.118L113.195 102.763C114.299 102.747 115.208 103.63 115.223 104.734C115.239 105.839 114.356 106.747 113.252 106.763L110.882 106.796L104.064 106.893L99.0001 106.965L88.2544 107.118C87.1499 107.134 86.2419 106.251 86.2262 105.147Z" fill="#F8F5F2" stroke="black"/>
<path d="M87.6344 98.6735L87.6546 98.6286C88.1988 97.4189 89.9038 97.3838 90.4974 98.5702V98.5702C91.0678 99.7102 92.686 99.7347 93.2905 98.6123L93.404 98.4017C94.0043 97.2871 95.5693 97.1978 96.2926 98.2367L96.5811 98.6511C97.4116 99.8441 99.1952 99.7869 99.9477 98.5433L100.018 98.4279C100.77 97.1846 102.528 97.0654 103.441 98.1957L104.025 98.9186C104.897 99.9971 106.611 99.7154 107.091 98.4146L107.269 97.9347C107.683 96.813 109.175 96.596 109.892 97.5533L110.905 98.9066C111.462 99.6506 112.645 99.2473 112.632 98.3181V98.3181" stroke="#078080"/>
<circle cx="94.9552" cy="86.0206" r="0.5" transform="rotate(-0.814547 94.9552 86.0206)" fill="black"/>
<circle cx="99.9547" cy="85.9495" r="0.5" transform="rotate(-0.814547 99.9547 85.9495)" fill="black"/>
<circle cx="91.0124" cy="90.0771" r="0.5" transform="rotate(-0.814547 91.0124 90.0771)" fill="black"/>
<circle cx="96.0119" cy="90.0059" r="0.5" transform="rotate(-0.814547 96.0119 90.0059)" fill="black"/>
<circle cx="101.011" cy="89.9349" r="0.5" transform="rotate(-0.814547 101.011 89.9349)" fill="black"/>
<circle cx="108.011" cy="89.8354" r="0.5" transform="rotate(-0.814547 108.011 89.8354)" fill="black"/>
<circle cx="104.954" cy="85.8785" r="0.5" transform="rotate(-0.814547 104.954 85.8785)" fill="black"/>
<path d="M86.1612 100.574C86.15 99.7859 86.7796 99.1382 87.5674 99.127L113.712 98.7553C114.499 98.7441 115.147 99.3736 115.158 100.161C115.17 100.949 114.54 101.597 113.752 101.608L111.586 101.639C111.01 101.647 110.44 101.764 109.907 101.983L106.18 103.513C104.186 104.331 101.906 104.015 100.211 102.685C99.4944 102.123 98.6072 101.824 97.6969 101.836L87.608 101.98C86.8202 101.991 86.1725 101.362 86.1612 100.574Z" fill="#F8F5F2" stroke="black"/>
</g>
<g clip-path="url(#clip5_122_19)">
<rect width="30" height="43" transform="translate(129.541 93.7557) rotate(-135.892)" fill="#F8F5F2"/>
<path d="M141.329 78.7212L136.198 82.1336C134.269 83.4171 131.992 84.0793 129.675 84.0311V84.0311C123.794 83.9088 118.981 79.3155 118.584 73.4471L118.573 73.2907C118.413 70.9248 118.987 68.5672 120.216 66.5393L123.378 61.321" stroke="black"/>
<line x1="140.981" y1="79.0802" x2="123.03" y2="61.68" stroke="black"/>
<path d="M149.322 69.7567V69.7567C150.161 66.9791 149.959 63.9912 148.756 61.3512L148.372 60.5106C146.891 57.2624 144.256 54.6807 140.978 53.2668L139.897 52.8005C137.2 51.6372 134.175 51.4796 131.371 52.3565V52.3565" stroke="black"/>
<path d="M149.681 70.1047L131.012 52.0085" stroke="black"/>
<path d="M148.322 73.6618C147.554 74.455 146.287 74.4747 145.494 73.7059L127.543 56.3057C126.75 55.5369 126.731 54.2707 127.499 53.4776C128.268 52.6845 129.534 52.6647 130.327 53.4335L132.029 55.0832L136.925 59.8287L140.562 63.3539L148.278 70.8338C149.071 71.6026 149.091 72.8687 148.322 73.6618Z" fill="#F8F5F2" stroke="black"/>
<path d="M142.754 77.2508L142.708 77.2683C141.469 77.7406 140.237 76.5615 140.654 75.3023V75.3023C141.055 74.0923 139.927 72.9323 138.706 73.3001L138.477 73.3691C137.265 73.7343 136.094 72.6925 136.315 71.4461L136.404 70.949C136.658 69.5178 135.355 68.2988 133.944 68.648L133.813 68.6804C132.402 69.0295 131.073 67.8724 131.225 66.4272L131.322 65.5029C131.466 64.1239 130.053 63.1128 128.795 63.6946L128.33 63.9092C127.245 64.411 126.035 63.5109 126.204 62.3271L126.442 60.6535C126.573 59.7335 125.45 59.1833 124.804 59.8506V59.8506" stroke="#078080"/>
<circle cx="128.636" cy="81.0404" r="0.5" transform="rotate(-135.892 128.636 81.0404)" fill="black"/>
<circle cx="125.046" cy="77.5603" r="0.5" transform="rotate(-135.892 125.046 77.5603)" fill="black"/>
<circle cx="134.292" cy="80.9523" r="0.5" transform="rotate(-135.892 134.292 80.9523)" fill="black"/>
<circle cx="130.702" cy="77.4722" r="0.5" transform="rotate(-135.892 130.702 77.4722)" fill="black"/>
<circle cx="127.112" cy="73.9922" r="0.5" transform="rotate(-135.892 127.112 73.9922)" fill="black"/>
<circle cx="122.085" cy="69.1201" r="0.5" transform="rotate(-135.892 122.085 69.1201)" fill="black"/>
<circle cx="121.455" cy="74.0803" r="0.5" transform="rotate(-135.892 121.455 74.0803)" fill="black"/>
<path d="M145.139 76.9456C144.591 77.5114 143.688 77.5254 143.122 76.9771L124.348 58.7786C123.782 58.2303 123.768 57.3271 124.316 56.7614C124.865 56.1956 125.768 56.1816 126.333 56.7299L127.889 58.2377C128.303 58.6388 128.788 58.9585 129.32 59.18L133.04 60.7287C135.03 61.557 136.421 63.3907 136.682 65.5299C136.792 66.4336 137.209 67.272 137.863 67.9056L145.108 74.9284C145.673 75.4767 145.688 76.3799 145.139 76.9456Z" fill="#F8F5F2" stroke="black"/>
</g>
<g clip-path="url(#clip6_122_19)">
<rect width="30" height="43" transform="translate(114.995 76.5558) rotate(-178.924)" fill="#F8F5F2"/>
<path d="M113.352 57.5215L111.93 63.5172C111.395 65.7723 110.183 67.8097 108.456 69.3557V69.3557C104.074 73.2792 97.4216 73.2063 93.1266 69.1877L93.0121 69.0806C91.2806 67.4605 90.091 65.3457 89.6055 63.0246L88.3563 57.052" stroke="black"/>
<line x1="113.343" y1="58.0214" x2="88.3469" y2="57.5519" stroke="black"/>
<path d="M113.077 45.5144V45.5144C111.795 42.9118 109.609 40.8651 106.927 39.7568L106.073 39.4039C102.774 38.0403 99.086 37.9516 95.725 39.1549L94.6166 39.5518C91.8512 40.5419 89.5326 42.4909 88.0818 45.0449V45.0449" stroke="black"/>
<path d="M113.577 45.5237L87.5819 45.0354" stroke="black"/>
<path d="M115.011 49.0512C114.991 50.1556 114.078 51.0341 112.974 51.0133L87.9785 50.5438C86.8741 50.5231 85.9956 49.611 86.0164 48.5066C86.0371 47.4022 86.9492 46.5238 88.0536 46.5445L90.4233 46.589L97.2403 46.7171L102.304 46.8122L113.049 47.014C114.154 47.0348 115.032 47.9469 115.011 49.0512Z" fill="#F8F5F2" stroke="black"/>
<path d="M113.39 55.4743L113.369 55.5185C112.785 56.7097 111.08 56.6885 110.526 55.4831V55.4831C109.993 54.3249 108.377 54.2471 107.735 55.3488L107.615 55.5556C106.978 56.6498 105.411 56.6874 104.722 55.6252L104.448 55.2015C103.657 53.9818 101.873 53.9801 101.079 55.1982L101.006 55.3113C100.213 56.529 98.4517 56.5902 97.5763 55.4304L97.0164 54.6886C96.1811 53.5819 94.4583 53.8069 93.9353 55.0911L93.7424 55.5649C93.2914 56.6723 91.7928 56.84 91.1083 55.8596L90.1405 54.4736C89.6084 53.7116 88.4122 54.0756 88.3948 55.0048V55.0048" stroke="#078080"/>
<circle cx="105.656" cy="67.8789" r="0.5" transform="rotate(-178.924 105.656 67.8789)" fill="black"/>
<circle cx="100.657" cy="67.785" r="0.5" transform="rotate(-178.924 100.657 67.785)" fill="black"/>
<circle cx="109.73" cy="63.9547" r="0.5" transform="rotate(-178.924 109.73 63.9547)" fill="black"/>
<circle cx="104.731" cy="63.8608" r="0.5" transform="rotate(-178.924 104.731 63.8608)" fill="black"/>
<circle cx="99.7323" cy="63.7669" r="0.5" transform="rotate(-178.924 99.7323 63.7669)" fill="black"/>
<circle cx="92.7335" cy="63.6355" r="0.5" transform="rotate(-178.924 92.7335 63.6355)" fill="black"/>
<circle cx="95.6578" cy="67.691" r="0.5" transform="rotate(-178.924 95.6578 67.691)" fill="black"/>
<path d="M114.925 53.6238C114.911 54.4115 114.26 55.0382 113.472 55.0234L87.3301 54.5323C86.5424 54.5175 85.9158 53.8669 85.9305 53.0792C85.9453 52.2914 86.5959 51.6648 87.3837 51.6796L89.5496 51.7203C90.1258 51.7311 90.6989 51.6334 91.2389 51.4323L95.0149 50.0259C97.0345 49.2737 99.3025 49.665 100.953 51.0503C101.651 51.6355 102.528 51.9641 103.438 51.9812L113.526 52.1706C114.314 52.1854 114.94 52.836 114.925 53.6238Z" fill="#F8F5F2" stroke="black"/>
</g>
<g clip-path="url(#clip7_122_19)">
<rect width="30" height="43" transform="translate(106 127.833) rotate(-46.6985)" fill="#F8F5F2"/>
<path d="M121.199 139.408L117.715 134.326C116.404 132.414 115.71 130.147 115.726 127.83V127.83C115.765 121.948 120.29 117.07 126.153 116.591L126.309 116.578C128.672 116.384 131.038 116.925 133.083 118.125L138.345 121.214" stroke="black"/>
<line x1="120.835" y1="139.065" x2="137.981" y2="120.871" stroke="black"/>
<path d="M130.275 147.274V147.274C133.064 148.074 136.049 147.83 138.672 146.589L139.507 146.194C142.734 144.668 145.278 141.996 146.646 138.698L147.097 137.611C148.222 134.898 148.337 131.871 147.421 129.08V129.08" stroke="black"/>
<path d="M129.932 147.638L147.764 128.716" stroke="black"/>
<path d="M126.356 146.329C125.552 145.572 125.515 144.306 126.272 143.502L143.418 125.308C144.176 124.504 145.442 124.467 146.245 125.224C147.049 125.982 147.087 127.248 146.329 128.052L144.704 129.776L140.028 134.738L136.554 138.424L129.183 146.245C128.426 147.049 127.16 147.087 126.356 146.329Z" fill="#F8F5F2" stroke="black"/>
<path d="M122.689 140.812L122.671 140.767C122.181 139.534 123.343 138.285 124.608 138.685V138.685C125.824 139.069 126.968 137.924 126.583 136.709L126.51 136.481C126.128 135.274 127.153 134.088 128.403 134.292L128.901 134.374C130.336 134.608 131.536 133.288 131.167 131.882L131.133 131.751C130.764 130.346 131.902 129 133.35 129.131L134.275 129.215C135.656 129.341 136.647 127.914 136.048 126.663L135.827 126.202C135.31 125.124 136.193 123.901 137.379 124.053L139.055 124.268C139.977 124.386 140.511 123.256 139.835 122.618V122.618" stroke="#078080"/>
<circle cx="118.701" cy="126.749" r="0.5" transform="rotate(-46.6985 118.701 126.749)" fill="black"/>
<circle cx="122.131" cy="123.11" r="0.5" transform="rotate(-46.6985 122.131 123.11)" fill="black"/>
<circle cx="118.869" cy="132.403" r="0.5" transform="rotate(-46.6985 118.869 132.403)" fill="black"/>
<circle cx="122.298" cy="128.764" r="0.5" transform="rotate(-46.6985 122.298 128.764)" fill="black"/>
<circle cx="125.727" cy="125.125" r="0.5" transform="rotate(-46.6985 125.727 125.125)" fill="black"/>
<circle cx="130.528" cy="120.031" r="0.5" transform="rotate(-46.6985 130.528 120.031)" fill="black"/>
<circle cx="125.56" cy="119.471" r="0.5" transform="rotate(-46.6985 125.56 119.471)" fill="black"/>
<path d="M123.028 143.193C122.454 142.652 122.428 141.749 122.968 141.176L140.9 122.148C141.441 121.574 142.344 121.547 142.917 122.088C143.491 122.628 143.517 123.531 142.977 124.104L141.491 125.681C141.096 126.1 140.783 126.59 140.569 127.125L139.073 130.867C138.273 132.868 136.459 134.284 134.323 134.576C133.421 134.699 132.589 135.127 131.965 135.79L125.044 143.133C124.504 143.706 123.601 143.733 123.028 143.193Z" fill="#F8F5F2" stroke="black"/>
</g>
<g clip-path="url(#clip8_122_19)">
<rect width="30" height="43" transform="translate(125 115.988) rotate(-88.3739)" fill="#F8F5F2"/>
<path d="M144.049 114.528L138.067 113.049C135.817 112.492 133.792 111.261 132.262 109.519V109.519C128.381 105.1 128.518 98.4477 132.578 94.1916L132.686 94.0781C134.322 92.3622 136.449 91.193 138.774 90.7298L144.759 89.538" stroke="black"/>
<line x1="143.549" y1="114.514" x2="144.259" y2="89.5238" stroke="black"/>
<path d="M156.058 114.369V114.369C158.673 113.111 160.741 110.945 161.875 108.274L162.236 107.424C163.631 104.138 163.755 100.45 162.584 97.0781L162.198 95.9659C161.234 93.1912 159.308 90.854 156.768 89.3787V89.3787" stroke="black"/>
<path d="M156.044 114.868L156.782 88.8789" stroke="black"/>
<path d="M152.503 116.269C151.399 116.237 150.529 115.317 150.561 114.213L151.27 89.2227C151.302 88.1185 152.222 87.2489 153.326 87.2802C154.43 87.3116 155.3 88.232 155.269 89.3362L155.201 91.7053L155.008 98.5208L154.864 103.584L154.559 114.326C154.528 115.43 153.607 116.3 152.503 116.269Z" fill="#F8F5F2" stroke="black"/>
<path d="M146.096 114.586L146.052 114.564C144.866 113.969 144.904 112.264 146.115 111.721V111.721C147.278 111.2 147.371 109.584 146.276 108.932L146.07 108.81C144.982 108.163 144.959 106.595 146.028 105.917L146.455 105.646C147.682 104.867 147.701 103.083 146.49 102.278L146.378 102.204C145.168 101.399 145.123 99.6374 146.292 98.7731L147.039 98.2204C148.153 97.3957 147.945 95.6708 146.666 95.1355L146.194 94.938C145.091 94.4764 144.938 92.9763 145.925 92.3012L147.32 91.3468C148.087 90.8221 147.734 89.6224 146.805 89.5961V89.5961" stroke="#078080"/>
<circle cx="133.766" cy="106.733" r="0.5" transform="rotate(-88.3739 133.766 106.733)" fill="black"/>
<circle cx="133.908" cy="101.735" r="0.5" transform="rotate(-88.3739 133.908 101.735)" fill="black"/>
<circle cx="137.651" cy="110.845" r="0.5" transform="rotate(-88.3739 137.651 110.845)" fill="black"/>
<circle cx="137.793" cy="105.847" r="0.5" transform="rotate(-88.3739 137.793 105.847)" fill="black"/>
<circle cx="137.935" cy="100.849" r="0.5" transform="rotate(-88.3739 137.935 100.849)" fill="black"/>
<circle cx="138.133" cy="93.8517" r="0.5" transform="rotate(-88.3739 138.133 93.8517)" fill="black"/>
<circle cx="134.05" cy="96.7369" r="0.5" transform="rotate(-88.3739 134.05 96.7369)" fill="black"/>
<path d="M147.932 116.139C147.144 116.116 146.524 115.46 146.546 114.672L147.288 88.536C147.31 87.7484 147.967 87.1281 148.755 87.1504C149.542 87.1728 150.162 87.8294 150.14 88.6169L150.079 90.7824C150.062 91.3584 150.154 91.9324 150.35 92.4744L151.72 96.2636C152.453 98.2904 152.04 100.555 150.639 102.192C150.047 102.884 149.71 103.757 149.684 104.667L149.398 114.753C149.376 115.541 148.719 116.161 147.932 116.139Z" fill="#F8F5F2" stroke="black"/>
</g>
<defs>
<clipPath id="clip0_122_19">
<rect width="30" height="43" fill="white" transform="translate(93.7017 72.1227) rotate(134.469)"/>
</clipPath>
<clipPath id="clip1_122_19">
<rect width="30" height="43" fill="white" transform="translate(75.7625 85.1091) rotate(90.5911)"/>
</clipPath>
<clipPath id="clip2_122_19">
<rect width="30" height="43" fill="white" transform="translate(72.8253 107.17) rotate(44.378)"/>
</clipPath>
<clipPath id="clip3_122_19">
<rect width="30" height="43" fill="white" transform="translate(85.2925 124) rotate(1.72236)"/>
</clipPath>
<clipPath id="clip4_122_19">
<rect width="30" height="43" fill="white" transform="translate(85.3353 77.6565) rotate(-0.814547)"/>
</clipPath>
<clipPath id="clip5_122_19">
<rect width="30" height="43" fill="white" transform="translate(129.541 93.7557) rotate(-135.892)"/>
</clipPath>
<clipPath id="clip6_122_19">
<rect width="30" height="43" fill="white" transform="translate(114.995 76.5558) rotate(-178.924)"/>
</clipPath>
<clipPath id="clip7_122_19">
<rect width="30" height="43" fill="white" transform="translate(106 127.833) rotate(-46.6985)"/>
</clipPath>
<clipPath id="clip8_122_19">
<rect width="30" height="43" fill="white" transform="translate(125 115.988) rotate(-88.3739)"/>
</clipPath>
</defs>
</svg>
