<svg width="253" height="117" viewBox="0 0 253 117" fill="none" xmlns="http://www.w3.org/2000/svg">
<path d="M89.9393 1.82803C89.9393 0.818439 90.7578 0 91.7674 0V0C92.777 0 93.5954 0.818439 93.5954 1.82803V36.9315H89.9393V1.82803Z" fill="black"/>
<path d="M115.574 36.9407V36.9407C115.578 39.0654 113.858 40.7909 111.733 40.7947L93.8902 40.827C91.7655 40.8309 90.0403 39.1116 90.0368 36.987V36.987L115.574 36.9407Z" fill="black"/>
<path d="M104.564 1.82803C104.564 0.818438 105.382 0 106.392 0V0C107.401 0 108.22 0.818439 108.22 1.82803V31.2565C108.22 32.2661 107.401 33.0845 106.392 33.0845V33.0845C105.382 33.0845 104.564 32.2661 104.564 31.2565V1.82803Z" fill="black"/>
<path d="M111.876 1.82803C111.876 0.818439 112.694 0 113.704 0V0C114.713 0 115.532 0.818439 115.532 1.82803V36.9315H111.876V1.82803Z" fill="black"/>
<path d="M108.22 52.3197V52.3197C110.239 52.3197 111.876 53.9566 111.876 55.9758V102.331H108.22V52.3197Z" fill="black"/>
<path d="M93.5954 55.9758C93.5954 53.9566 95.2323 52.3197 97.2515 52.3197V52.3197V102.331H93.5954V55.9758Z" fill="black"/>
<path d="M97.2515 1.82803C97.2515 0.818438 98.0699 0 99.0795 0V0C100.089 0 100.908 0.818439 100.908 1.82803V31.2565C100.908 32.2661 100.089 33.0845 99.0795 33.0845V33.0845C98.0699 33.0845 97.2515 32.2661 97.2515 31.2565V1.82803Z" fill="black"/>
<path d="M100.908 39.2398H104.564V52.3197H100.908V39.2398Z" fill="black"/>
<path d="M108.966 52.3734L108.951 56.2204L96.5202 56.1666L96.5353 52.3196L108.966 52.3734Z" fill="black"/>
<path d="M109.311 101.523C110.304 100.666 111.845 101.376 111.84 102.688V102.688C111.838 103.008 111.737 103.318 111.55 103.577L110.141 105.53C106.59 110.451 99.2912 110.538 95.6195 105.703L93.9655 103.525C93.7566 103.25 93.6441 102.913 93.6455 102.568V102.568C93.6507 101.243 95.1934 100.52 96.2159 101.363L100.498 104.895C101.944 106.088 104.039 106.065 105.458 104.842L109.311 101.523Z" fill="black"/>
<path d="M155.749 53.8585V53.8585C157.768 53.8585 159.405 55.4954 159.405 57.5146V103.87H155.749V53.8585Z" fill="black"/>
<path d="M141.124 57.5146C141.124 55.4954 142.761 53.8585 144.78 53.8585V53.8585V103.87H141.124V57.5146Z" fill="black"/>
<path d="M156.495 53.9122L156.48 57.7592L144.049 57.7054L144.064 53.8584L156.495 53.9122Z" fill="black"/>
<path d="M156.84 103.061C157.833 102.205 159.374 102.915 159.368 104.227V104.227C159.367 104.546 159.266 104.857 159.079 105.116L157.67 107.069C154.118 111.99 146.82 112.077 143.148 107.242L141.494 105.064C141.285 104.788 141.173 104.452 141.174 104.107V104.107C141.18 102.782 142.722 102.058 143.745 102.902L148.026 106.434C149.473 107.626 151.568 107.604 152.987 106.381L156.84 103.061Z" fill="black"/>
<path d="M161.061 21.1587C161.061 26.6986 159.699 31.6174 157.601 35.0852C155.482 38.5903 152.827 40.3174 150.264 40.3174C147.702 40.3174 145.047 38.5903 142.928 35.0852C140.83 31.6174 139.468 26.6986 139.468 21.1587C139.468 15.6188 140.83 10.7 142.928 7.23223C145.047 3.72712 147.702 2 150.264 2C152.827 2 155.482 3.72712 157.601 7.23223C159.699 10.7 161.061 15.6188 161.061 21.1587Z" stroke="black" stroke-width="4"/>
<path d="M148.436 41.548H152.092V54.6279H148.436V41.548Z" fill="black"/>
<rect y="38" width="71" height="4" fill="black"/>
<rect y="50" width="71" height="4" fill="black"/>
<rect y="62" width="71" height="4" fill="black"/>
<rect x="182" y="38" width="71" height="4" fill="black"/>
<rect x="182" y="50" width="71" height="4" fill="black"/>
<rect x="182" y="62" width="71" height="4" fill="black"/>
</svg>
